<svg width="64" height="64" viewBox="0 0 64 64" fill="none" xmlns="http://www.w3.org/2000/svg" role="img" aria-labelledby="title desc">
  <title id="title">PropertyLens logo</title>
  <desc id="desc">A house inside an analytics lens with gold dollar coins.</desc>
  <defs>
    <linearGradient id="pl-bg" x1="10" y1="8" x2="56" y2="58" gradientUnits="userSpaceOnUse">
      <stop stop-color="#302C28"/>
      <stop offset="0.55" stop-color="#5A524A"/>
      <stop offset="1" stop-color="#EF7D22"/>
    </linearGradient>
    <linearGradient id="pl-line" x1="18" y1="18" x2="48" y2="49" gradientUnits="userSpaceOnUse">
      <stop stop-color="#FFF7ED"/>
      <stop offset="0.6" stop-color="#FED7AA"/>
      <stop offset="1" stop-color="#FB923C"/>
    </linearGradient>
    <linearGradient id="pl-coin" x1="36" y1="37" x2="56" y2="57" gradientUnits="userSpaceOnUse">
      <stop stop-color="#FFF7B8"/>
      <stop offset="0.5" stop-color="#FBBF24"/>
      <stop offset="1" stop-color="#D97706"/>
    </linearGradient>
  </defs>
  <rect x="4" y="4" width="56" height="56" rx="14" fill="url(#pl-bg)"/>
  <ellipse cx="45.5" cy="49.5" rx="9.5" ry="3.9" fill="#7C3F0A" fill-opacity="0.22"/>
  <path d="M37 45.5C37 43.2 40.8 41.4 45.5 41.4C50.2 41.4 54 43.2 54 45.5V50.5C54 52.8 50.2 54.6 45.5 54.6C40.8 54.6 37 52.8 37 50.5V45.5Z" fill="url(#pl-coin)"/>
  <ellipse cx="45.5" cy="45.5" rx="8.5" ry="4.1" fill="#FDE68A" stroke="#F59E0B" stroke-width="1.6"/>
  <path d="M37 49.8C38.3 51.4 41.5 52.5 45.5 52.5C49.5 52.5 52.7 51.4 54 49.8" stroke="#B45309" stroke-width="1.4" stroke-linecap="round" opacity="0.65"/>
  <path d="M45.5 42.8V48.1" stroke="#92400E" stroke-width="1.4" stroke-linecap="round" opacity="0.75"/>
  <path d="M43.4 44.1C43.4 43.1 44.4 42.6 45.7 42.6C46.7 42.6 47.5 42.9 48 43.4M47.7 46.7C47.7 47.6 46.8 48.2 45.4 48.2C44.2 48.2 43.3 47.8 42.8 47.2" stroke="#92400E" stroke-width="1.35" stroke-linecap="round"/>
  <path d="M18 33.5L31.9 21.5L46 33.5" stroke="url(#pl-line)" stroke-width="4" stroke-linecap="round" stroke-linejoin="round"/>
  <path d="M22.5 32.5V45.5H41.5V32.5" stroke="#FFF7ED" stroke-width="3.5" stroke-linecap="round" stroke-linejoin="round"/>
  <path d="M30.5 45V37H36V45" stroke="#FDBA74" stroke-width="3" stroke-linecap="round" stroke-linejoin="round"/>
  <circle cx="41" cy="23" r="7.5" fill="#FFF7ED" fill-opacity="0.16" stroke="#FDBA74" stroke-width="3"/>
  <path d="M46.3 28.4L52 34.1" stroke="#FDBA74" stroke-width="3.5" stroke-linecap="round"/>
  <path d="M16 50H48" stroke="#FED7AA" stroke-width="3" stroke-linecap="round" stroke-opacity="0.86"/>
</svg>
